<svg xmlns="http://www.w3.org/2000/svg" viewBox="0 0 138.89 149.13"><defs><style>.cls-1{fill:#f3c226;}.cls-2{fill:#2cb3e9;}</style></defs><g id="Capa_2" data-name="Capa 2"><g id="Capa_1-2" data-name="Capa 1"><path class="cls-1" d="M114.3,71.9A55.8,55.8,0,0,0,128,47.8c4.8-18.7-7.7-35.1-25.9-33.7a37.06,37.06,0,0,1,1.9,4.6c5.4,22.1,6.4,33.2-11.5,48.9C80.4,78.2,67,86.7,52.9,94.4c-3.3,1.8-6.3,4.1-10.3,4.9-.2-5.9,1.5-11.4.6-18-14.8,23-29,45.2-43.2,67.3,9.3-1.5,17.5-5.1,25.5-9C59.5,122.8,88.6,99.5,114.3,71.9Z"/><path class="cls-2" d="M69.2,68c18.1,0,32.5-15,32.5-34C101.7,15.2,87.4.1,69.5,0S37.2,15,37,33.6C36.7,52.4,51.3,67.9,69.2,68Z"/><path class="cls-1" d="M60.1,127.2c-2.4,1.3-1.8,2.6-.8,4.4,2.8,5.1,5.7,10.1,8.3,15.4,1.6,3.2,2.5,2.4,4.4.2,12-14.5,24-28.8,36.1-43.2.7-.9,1.8-1.6,1.1-3.8C92.6,109.2,76.4,118.3,60.1,127.2Z"/><path class="cls-1" d="M136.2,58.8c-11.3,12.1-22.7,22.7-32.9,34.5-.4.1-.9.3-.6.8.1.2.8,0,1.2-.1,10.9-6.7,21.7-13.4,32.6-20.1,1.1-.7,2.8-1.2,2.3-3.3C138,67,137.2,63.2,136.2,58.8Z"/><path class="cls-1" d="M31.6,48.6c1.3-.7,2.2-1.4,1.9-3.1-.7-3.5-1.3-7.1-2-10.7C21,39.7,6.6,57.5,5.2,67.2c4.2-3.3,8.3-6.6,12.5-9.8A92.77,92.77,0,0,1,31.6,48.6Z"/></g></g></svg>